<mxfile host="app.diagrams.net" modified="2023-09-26T06:00:31.460Z" agent="Mozilla/5.0 (X11; Ubuntu; Linux x86_64; rv:109.0) Gecko/20100101 Firefox/117.0" version="21.8.2" etag="DeRITBJ-R4uh6BLbGo_V" type="github">
  <diagram name="Page-1" id="muYtqmjiyligGf5-vHXn">
    <mxGraphModel>
      <root>
        <mxCell id="0" />
        <mxCell id="1" parent="0" />
      </root>
    </mxGraphModel>
  </diagram>
</mxfile>
